<svg xmlns="http://www.w3.org/2000/svg" width="1280" height="360" viewBox="0 0 1280 360" role="img" aria-labelledby="title desc">
  <title id="title">HOLLOWC2</title>
  <desc id="desc">Quant Systems, AI Security, Open Source</desc>
  <defs>
    <linearGradient id="bg" x1="0" y1="0" x2="1" y2="1">
      <stop offset="0" stop-color="#070b12"/>
      <stop offset="1" stop-color="#111d29"/>
    </linearGradient>
    <linearGradient id="line" x1="0" y1="0" x2="1" y2="0">
      <stop stop-color="#20d4c2" stop-opacity="0"/>
      <stop offset=".5" stop-color="#20d4c2" stop-opacity=".8"/>
      <stop offset="1" stop-color="#20d4c2" stop-opacity="0"/>
    </linearGradient>
    <pattern id="grid" width="48" height="48" patternUnits="userSpaceOnUse">
      <path d="M48 0H0V48" fill="none" stroke="#8aa6bb" stroke-opacity=".11"/>
    </pattern>
  </defs>
  <rect width="1280" height="360" fill="url(#bg)"/>
  <rect width="1280" height="360" fill="url(#grid)"/>
  <path d="M0 281 L95 266 159 284 231 228 302 243 376 188 449 205 523 168 595 193 676 139 748 163 829 106 913 137 998 83 1085 119 1171 51 1280 72" fill="none" stroke="#20d4c2" stroke-width="3" stroke-linejoin="round"/>
  <path d="M0 281 L95 266 159 284 231 228 302 243 376 188 449 205 523 168 595 193 676 139 748 163 829 106 913 137 998 83 1085 119 1171 51 1280 72 V360 H0Z" fill="#20d4c2" opacity=".045"/>
  <path d="M0 113H1280M0 114H1280" stroke="url(#line)" stroke-width="1"/>
  <g fill="#20d4c2">
    <circle cx="1171" cy="51" r="5"/><circle cx="998" cy="83" r="4"/><circle cx="829" cy="106" r="4"/>
  </g>
  <text x="72" y="160" fill="#f3fbff" font-family="ui-monospace, SFMono-Regular, Menlo, Monaco, Consolas, monospace" font-size="64" font-weight="700" letter-spacing="6">HOLLOWC2</text>
  <text x="76" y="207" fill="#20d4c2" font-family="ui-monospace, SFMono-Regular, Menlo, Monaco, Consolas, monospace" font-size="20" letter-spacing="2">QUANT SYSTEMS // AI SECURITY // OPEN SOURCE</text>
  <text x="76" y="247" fill="#8aa6bb" font-family="ui-monospace, SFMono-Regular, Menlo, Monaco, Consolas, monospace" font-size="14">OBSERVABLE · REPRODUCIBLE · STRANGE MACHINES</text>
</svg>
